Coordinates
version=1
nRows=24
nColumns=24
inDegrees=yes

Units are S.I. units (second, meters, Newtons, ...)
Angles are in degrees.

endheader
time	pelvis_tilt	pelvis_list	pelvis_rotation	pelvis_tx	pelvis_ty	pelvis_tz	hip_flexion_r	hip_adduction_r	hip_rotation_r	knee_angle_r	ankle_angle_r	subtalar_angle_r	mtp_angle_r	hip_flexion_l	hip_adduction_l	hip_rotation_l	knee_angle_l	ankle_angle_l	subtalar_angle_l	mtp_angle_l	lumbar_extension	lumbar_bending	lumbar_rotation
      2.48500000	      7.04186612	     -1.93666212	     -8.26068825	      0.96482442	      0.97700265	      0.05500041	    -23.55603598	     -2.56304999	    -10.70452541	    -28.54765414	     -8.03874412	      9.60468676	     34.83583920	     16.00358123	     -4.60763737	    -29.17102944	    -21.76694982	     -7.74291974	     -6.27753942	     15.44307370	    -11.95798741	    -10.28320053	    -15.16717435
      2.49000000	      7.06936009	     -2.01026795	     -7.96715112	      0.97160013	      0.97824675	      0.05415272	    -22.95802063	     -2.59177711	    -10.58338339	    -30.00004838	     -9.30896539	      9.10534519	     34.29015409	     15.64836332	     -4.50635515	    -28.87868489	    -21.88818866	     -7.25096015	     -6.13200687	     13.46031157	    -12.03621697	    -10.19138294	    -15.44480235
      2.49500000	      7.10897004	     -2.10286549	     -7.59568069	      0.97833321	      0.97950374	      0.05318614	    -22.35694274	     -2.57123071	    -10.54250667	    -31.44061927	    -10.54401694	      8.53815273	     33.94512638	     15.28627783	     -4.39757074	    -28.46134570	    -21.97256303	     -6.99850692	     -6.19447201	     13.35674361	    -12.14218994	    -10.05734362	    -15.79542002
      2.50000000	      7.13940269	     -2.19411084	     -7.29211364	      0.98500948	      0.98080042	      0.05234183	    -21.68376798	     -2.56444400	    -10.39137081	    -32.96455931	    -11.39237869	      8.14202430	     31.22349338	     14.91035471	     -4.31855743	    -28.15075863	    -22.05354131	     -6.52945220	     -6.05485604	     11.77993913	    -12.22991618	     -9.93612272	    -16.08898584
      2.50500000	      7.17539012	     -2.29813685	     -6.94996520	      0.99161637	      0.98209628	      0.05145340	    -20.99417745	     -2.52264151	    -10.27959880	    -34.46920602	    -12.18123755	      7.63803316	     29.11179351	     14.52820103	     -4.24326901	    -27.77612302	    -22.11124189	     -6.17781429	     -6.01765386	     11.05335739	    -12.32885675	     -9.78993377	    -16.42380575
      2.51000000	      7.20619827	     -2.40722571	     -6.59831395	      0.99817662	      0.98339386	      0.05055211	    -20.27434207	     -2.46448504	    -10.17834354	    -35.96977648	    -12.77347953	      7.13219624	     26.72160473	     14.14839140	     -4.17646221	    -27.37979621	    -22.15857838	     -5.81134711	     -5.95959754	     10.26323973	    -12.42705462	     -9.63004310	    -16.77074076
      2.51500000	      7.23701785	     -2.52136862	     -6.24943788	      1.00469107	      0.98470551	      0.04967850	    -19.52805132	     -2.38992591	    -10.06814091	    -37.46121906	    -13.18099903	      6.59719534	     24.21016147	     13.75776123	     -4.12277899	    -26.99443192	    -22.18942772	     -5.44323622	     -5.88683116	      9.50029678	    -12.51826550	     -9.46143057	    -17.11676757
      2.52000000	      7.26264898	     -2.63783513	     -5.90324830	      1.01114085	      0.98602166	      0.04882779	    -18.74991178	     -2.30257397	     -9.96192596	    -38.94393287	    -13.37725392	      6.03629474	     21.63609214	     13.36482075	     -4.07797950	    -26.60358198	    -22.20026510	     -5.08835117	     -5.80288519	      8.77444967	    -12.60893301	     -9.28908755	    -17.46252402
      2.52500000	      7.29732024	     -2.76339959	     -5.55580881	      1.01752176	      0.98734788	      0.04798473	    -17.96025285	     -2.19712557	     -9.86392534	    -40.40294168	    -13.38708214	      5.45301363	     19.11763451	     12.95737079	     -4.04695609	    -26.21494160	    -22.19490384	     -4.73693382	     -5.72029645	      8.06766051	    -12.71461578	     -9.10046920	    -17.80372190
      2.53000000	      7.32923196	     -2.89863770	     -5.21397246	      1.02384745	      0.98868060	      0.04717173	    -17.14932089	     -2.07460040	     -9.77549319	    -41.82975237	    -13.23343018	      4.85576976	     16.71695695	     12.54134305	     -4.03392355	    -25.83525517	    -22.16676082	     -4.39683727	     -5.62266016	      7.40785807	    -12.81264235	     -8.89746564	    -18.12840669
      2.53500000	      7.35635196	     -3.03854991	     -4.86258803	      1.03013195	      0.99000164	      0.04635950	    -16.32009165	     -1.93956683	     -9.72171635	    -43.21643811	    -12.93997316	      4.25634234	     14.49450690	     12.12923542	     -4.03025277	    -25.44425083	    -22.12623855	     -4.07688912	     -5.53250906	      6.79248391	    -12.90343056	     -8.68307994	    -18.45881465
      2.54000000	      7.37517501	     -3.18036341	     -4.52576136	      1.03637420	      0.99132020	      0.04558266	    -15.47495776	     -1.79956257	     -9.67837924	    -44.51662266	    -12.76350446	      3.49750257	     14.24802950	     11.71019077	     -4.03524656	    -25.06681288	    -22.05111201	     -3.85571019	     -5.48328704	      6.74463699	    -12.98304696	     -8.46448047	    -18.77472530
      2.54500000	      7.42201328	     -3.31655080	     -4.17888896	      1.04258675	      0.99265971	      0.04480996	    -14.63936943	     -1.66906425	     -9.69278918	    -45.83748767	    -11.98608919	      3.03228418	     10.84139085	     11.26344722	     -4.04421145	    -24.72156783	    -21.99215084	     -3.43449043	     -5.26270048	      5.52498390	    -13.09398408	     -8.25020513	    -19.09713882
      2.55000000	      7.44919236	     -3.47222388	     -3.84532729	      1.04874279	      0.99397488	      0.04407365	    -13.78352883	     -1.51361964	     -9.70712209	    -47.03193445	    -11.54884410	      2.33539720	     10.69065024	     10.82740511	     -4.07776106	    -24.36496399	    -21.89080508	     -3.22773533	     -5.20821809	      5.50473268	    -13.17671298	     -8.01103887	    -19.39402483
      2.55500000	      7.47342663	     -3.62278444	     -3.51545733	      1.05485303	      0.99527461	      0.04336646	    -12.91325404	     -1.36396806	     -9.75743465	    -48.17376204	    -11.00920271	      1.64619093	     10.41317051	     10.39097964	     -4.11897614	    -24.05381726	    -21.78417066	     -3.00657598	     -5.07821939	      5.41493648	    -13.25939731	     -7.77776431	    -19.70777775
      2.56000000	      7.54411986	     -3.77316647	     -3.18795305	      1.06095116	      0.99662195	      0.04265880	    -12.08694213	     -1.22823293	     -9.84879577	    -49.29159381	     -9.94260766	      1.31494300	      7.25922717	      9.89616663	     -4.16325332	    -23.76261422	    -21.67713897	     -2.57725593	     -4.83160938	      4.03401460	    -13.38769165	     -7.53794973	    -19.97975100
      2.56500000	      7.57947412	     -3.92011665	     -2.87071950	      1.06696968	      0.99790406	      0.04197788	    -11.21783647	     -1.09636956	     -9.95673572	    -50.29223510	     -9.27498285	      0.78302243	      7.26285807	      9.44343161	     -4.21472614	    -23.49758237	    -21.54585571	     -2.39833401	     -4.69931056	      4.03733657	    -13.48337763	     -7.30082545	    -20.26595111
      2.57000000	      7.62328261	     -4.07545205	     -2.55318677	      1.07301693	      0.99917877	      0.04132785	    -10.36802654	     -0.95613367	    -10.09864967	    -51.19710269	     -8.57862275	      0.26334109	      7.20885406	      8.96633034	     -4.28024919	    -23.22669708	    -21.39553784	     -2.18289468	     -4.53268971	      3.98659425	    -13.57208542	     -7.05481265	    -20.53282472
      2.57500000	      7.66254471	     -4.23243335	     -2.23847182	      1.07899615	      1.00042879	      0.04067610	     -9.50997249	     -0.81870023	    -10.25969726	    -52.02195409	     -7.84120609	     -0.19140426	      7.11738857	      8.50354636	     -4.35669492	    -22.98590855	    -21.25141624	     -1.97283101	     -4.35179403	      3.86920749	    -13.66199068	     -6.79713641	    -20.79712047
      2.58000000	      7.73812456	     -4.37064982	     -1.96834479	      1.08495636	      1.00171703	      0.04011874	     -8.68486036	     -0.71393005	    -10.42076388	    -52.78801326	     -6.93704489	     -0.54886919	      6.04689634	      7.98099610	     -4.42980172	    -22.85554426	    -21.09274210	     -1.61491475	     -4.04408777	      2.65528212	    -13.78247595	     -6.57653692	    -21.02331897
      2.58500000	      7.80217654	     -4.51910445	     -1.67589894	      1.09090542	      1.00294554	      0.03952109	     -7.86805594	     -0.60032991	    -10.60972885	    -53.42917624	     -6.12390111	     -0.76054933	      6.15527921	      7.47785181	     -4.51155733	    -22.67929998	    -20.92361102	     -1.45573512	     -3.89244600	      2.66853224	    -13.89162066	     -6.33178295	    -21.25916682
      2.59000000	      7.80716509	     -4.65492677	     -1.38057898	      1.09677874	      1.00405063	      0.03895938	     -6.97419973	     -0.49911107	    -10.83874247	    -54.01237704	     -5.38379709	     -1.02570706	      6.25576337	      7.05786548	     -4.59672387	    -22.50581532	    -20.78580177	     -1.24075516	     -3.64062212	      2.64040209	    -13.93921288	     -6.10573316	    -21.54027297
      2.59500000	      7.87219053	     -4.78922672	     -1.10912456	      1.10266705	      1.00521797	      0.03841318	     -6.16742811	     -0.40722406	    -11.05988937	    -54.47753756	     -4.58391215	     -1.22173117	      6.38091568	      6.54759669	     -4.67908781	    -22.40002991	    -20.59446729	     -1.09383573	     -3.45000811	      2.62351655	    -14.04152711	     -5.87537060	    -21.74838985
      2.60000000	      7.90679427	     -4.91168853	     -0.83460590	      1.10850353	      1.00630700	      0.03789958	     -5.33112855	     -0.32752742	    -11.30583057	    -54.86144793	     -3.81280589	     -1.38161070	      6.52194468	      6.08396351	     -4.76118085	    -22.29110067	    -20.42894909	     -0.91733116	     -3.21104968	      2.59828430	    -14.11896860	     -5.66426556	    -22.00423537
